<svg width="166" height="32" viewBox="0 0 166 32" fill="none" xmlns="http://www.w3.org/2000/svg">
<path d="M16 0C7.2 0 0 7.2 0 16C0 24.8 7.2 32 16 32C24.8 32 32 24.8 32 16C32 7.2 24.8 0 16 0ZM24.1333 17.3333C24.4 19.7333 25.3333 22 26.6667 24C26.1333 24.6667 25.4667 25.3333 24.8 26C22.8 23.4667 21.6 20.5333 21.3333 17.3333H17.3333V29.2C16.9333 29.2 16.4 29.3333 16 29.3333C15.6 29.3333 15.0667 29.3333 14.6667 29.2V17.3333H10.6667C10.4 20.5333 9.2 23.4667 7.2 26C6.53333 25.3333 5.86667 24.6667 5.33333 24C6.8 22 7.73333 19.7333 7.86667 17.3333H2.8C2.66667 16.9333 2.66667 16.4 2.66667 16C2.66667 15.6 2.66667 15.0667 2.8 14.6667H8C7.73333 12.2667 6.8 10 5.33333 8C5.86667 7.33333 6.53333 6.66667 7.2 6C9.2 8.53333 10.4 11.4667 10.6667 14.6667H14.6667V2.8C15.0667 2.66667 15.6 2.66667 16 2.66667C16.4 2.66667 16.9333 2.66667 17.3333 2.8V14.6667H21.3333C21.6 11.4667 22.8 8.53333 24.8 6C25.4667 6.66667 26.1333 7.33333 26.6667 8C25.2 10 24.2667 12.2667 24.1333 14.6667H29.3333C29.3333 15.0667 29.4667 15.6 29.4667 16C29.4667 16.4 29.4667 16.9333 29.3333 17.3333H24.1333Z" fill="#23262F"/>
<path d="M52.048 7.056V9.744H44.92V14.28H50.632V16.872H44.92V24H41.536V7.056H52.048ZM53.4689 6.888C53.4689 6.344 53.6609 5.904 54.0449 5.568C54.4289 5.216 54.9329 5.04 55.5569 5.04C56.1809 5.04 56.6849 5.216 57.0689 5.568C57.4529 5.904 57.6449 6.344 57.6449 6.888C57.6449 7.416 57.4529 7.856 57.0689 8.208C56.6849 8.544 56.1809 8.712 55.5569 8.712C54.9329 8.712 54.4289 8.544 54.0449 8.208C53.6609 7.856 53.4689 7.416 53.4689 6.888ZM57.2369 10.704V24H53.8529V10.704H57.2369ZM66.9222 21.096V24H65.1462C63.6582 24 62.5142 23.64 61.7142 22.92C60.9302 22.2 60.5382 21 60.5382 19.32V13.56H58.6902V10.704H60.5382V7.416H63.9222V10.704H66.8982V13.56H63.9222V19.368C63.9222 20.008 64.0502 20.456 64.3062 20.712C64.5622 20.968 64.9942 21.096 65.6022 21.096H66.9222ZM76.7973 10.512C78.3332 10.512 79.5573 11.016 80.4693 12.024C81.3813 13.032 81.8373 14.448 81.8373 16.272V24H78.4772V16.656C78.4772 15.6 78.2052 14.784 77.6612 14.208C77.1172 13.616 76.3733 13.32 75.4292 13.32C74.4692 13.32 73.7012 13.632 73.1252 14.256C72.5492 14.88 72.2612 15.776 72.2612 16.944V24H68.8772V10.704H72.2612V13.368C72.6132 12.472 73.1892 11.776 73.9892 11.28C74.8052 10.768 75.7412 10.512 76.7973 10.512ZM96.8388 16.848C96.8388 17.184 96.7988 17.568 96.7188 18H86.9748C87.0228 19.184 87.3428 20.056 87.9348 20.616C88.5268 21.176 89.2628 21.456 90.1428 21.456C90.9268 21.456 91.5748 21.264 92.0868 20.88C92.6148 20.496 92.9508 19.976 93.0948 19.32H96.6708C96.4948 20.248 96.1188 21.08 95.5428 21.816C94.9668 22.552 94.2228 23.128 93.3108 23.544C92.4148 23.96 91.4148 24.168 90.3108 24.168C89.0148 24.168 87.8628 23.896 86.8548 23.352C85.8468 22.792 85.0628 22 84.5028 20.976C83.9428 19.952 83.6628 18.744 83.6628 17.352C83.6628 15.96 83.9428 14.752 84.5028 13.728C85.0628 12.688 85.8468 11.896 86.8548 11.352C87.8628 10.808 89.0148 10.536 90.3108 10.536C91.6228 10.536 92.7668 10.808 93.7428 11.352C94.7348 11.896 95.4948 12.648 96.0228 13.608C96.5668 14.552 96.8388 15.632 96.8388 16.848ZM93.4308 16.512C93.4788 15.424 93.1908 14.6 92.5668 14.04C91.9588 13.48 91.2068 13.2 90.3108 13.2C89.3988 13.2 88.6308 13.48 88.0068 14.04C87.3828 14.6 87.0388 15.424 86.9748 16.512H93.4308ZM103.345 10.536C104.961 10.536 106.257 10.944 107.233 11.76C108.209 12.576 108.817 13.664 109.057 15.024H105.889C105.761 14.384 105.473 13.872 105.025 13.488C104.577 13.104 103.993 12.912 103.273 12.912C102.697 12.912 102.249 13.048 101.929 13.32C101.609 13.592 101.449 13.96 101.449 14.424C101.449 14.792 101.577 15.088 101.833 15.312C102.089 15.536 102.409 15.712 102.793 15.84C103.177 15.968 103.729 16.12 104.449 16.296C105.457 16.52 106.273 16.76 106.897 17.016C107.537 17.256 108.081 17.648 108.529 18.192C108.993 18.72 109.225 19.44 109.225 20.352C109.225 21.488 108.777 22.408 107.881 23.112C107.001 23.816 105.809 24.168 104.305 24.168C102.577 24.168 101.193 23.784 100.153 23.016C99.113 22.232 98.481 21.12 98.257 19.68H101.497C101.577 20.336 101.865 20.856 102.361 21.24C102.857 21.608 103.505 21.792 104.305 21.792C104.881 21.792 105.321 21.656 105.625 21.384C105.929 21.096 106.081 20.728 106.081 20.28C106.081 19.896 105.945 19.584 105.673 19.344C105.417 19.104 105.089 18.92 104.689 18.792C104.305 18.664 103.753 18.512 103.033 18.336C102.041 18.112 101.233 17.888 100.609 17.664C100.001 17.424 99.473 17.048 99.025 16.536C98.593 16.024 98.377 15.32 98.377 14.424C98.377 13.272 98.817 12.336 99.697 11.616C100.577 10.896 101.793 10.536 103.345 10.536ZM115.849 10.536C117.465 10.536 118.761 10.944 119.737 11.76C120.713 12.576 121.321 13.664 121.561 15.024H118.393C118.265 14.384 117.977 13.872 117.529 13.488C117.081 13.104 116.497 12.912 115.777 12.912C115.201 12.912 114.753 13.048 114.433 13.32C114.113 13.592 113.953 13.96 113.953 14.424C113.953 14.792 114.081 15.088 114.337 15.312C114.593 15.536 114.913 15.712 115.297 15.84C115.681 15.968 116.233 16.12 116.953 16.296C117.961 16.52 118.777 16.76 119.401 17.016C120.041 17.256 120.585 17.648 121.033 18.192C121.497 18.72 121.729 19.44 121.729 20.352C121.729 21.488 121.281 22.408 120.385 23.112C119.505 23.816 118.313 24.168 116.809 24.168C115.081 24.168 113.697 23.784 112.657 23.016C111.617 22.232 110.985 21.12 110.761 19.68H114.001C114.081 20.336 114.369 20.856 114.865 21.24C115.361 21.608 116.009 21.792 116.809 21.792C117.385 21.792 117.825 21.656 118.129 21.384C118.433 21.096 118.585 20.728 118.585 20.28C118.585 19.896 118.449 19.584 118.177 19.344C117.921 19.104 117.593 18.92 117.193 18.792C116.809 18.664 116.257 18.512 115.537 18.336C114.545 18.112 113.737 17.888 113.113 17.664C112.505 17.424 111.977 17.048 111.529 16.536C111.097 16.024 110.881 15.32 110.881 14.424C110.881 13.272 111.321 12.336 112.201 11.616C113.081 10.896 114.297 10.536 115.849 10.536ZM131.9 17.712V24H128.516V7.056H134.684C136.684 7.056 138.188 7.536 139.196 8.496C140.22 9.456 140.732 10.76 140.732 12.408C140.732 14.024 140.204 15.312 139.148 16.272C138.108 17.232 136.62 17.712 134.684 17.712H131.9ZM134.324 15C136.308 15 137.3 14.136 137.3 12.408C137.3 11.56 137.068 10.912 136.604 10.464C136.14 10.016 135.38 9.792 134.324 9.792H131.9V15H134.324ZM145.834 13.248C146.33 12.4 146.986 11.736 147.802 11.256C148.618 10.76 149.53 10.512 150.538 10.512V14.136H149.554C147.074 14.136 145.834 15.288 145.834 17.592V24H142.45V10.704H145.834V13.248ZM158.075 10.536C159.371 10.536 160.531 10.808 161.555 11.352C162.595 11.896 163.411 12.688 164.003 13.728C164.595 14.752 164.891 15.96 164.891 17.352C164.891 18.744 164.595 19.952 164.003 20.976C163.411 22 162.595 22.792 161.555 23.352C160.531 23.896 159.371 24.168 158.075 24.168C156.779 24.168 155.611 23.896 154.571 23.352C153.547 22.792 152.739 22 152.147 20.976C151.555 19.952 151.259 18.744 151.259 17.352C151.259 15.96 151.555 14.752 152.147 13.728C152.739 12.688 153.547 11.896 154.571 11.352C155.611 10.808 156.779 10.536 158.075 10.536ZM158.075 13.464C157.131 13.464 156.331 13.8 155.675 14.472C155.019 15.128 154.691 16.088 154.691 17.352C154.691 18.616 155.019 19.584 155.675 20.256C156.331 20.912 157.131 21.24 158.075 21.24C159.019 21.24 159.819 20.912 160.475 20.256C161.131 19.584 161.459 18.616 161.459 17.352C161.459 16.088 161.131 15.128 160.475 14.472C159.819 13.8 159.019 13.464 158.075 13.464Z" fill="#23262F"/>
</svg>
