<svg width="32" height="32" viewBox="0 0 32 32" fill="none" xmlns="http://www.w3.org/2000/svg">
<rect width="32" height="32" rx="16" fill="#3772FF"/>
<path fill-rule="evenodd" clip-rule="evenodd" d="M10.6212 8.82798C8.78891 9.05702 7.37477 10.452 7.1173 12.2806C6.96157 13.3865 6.8335 14.6932 6.8335 16C6.8335 17.3068 6.96157 18.6135 7.1173 19.7194C7.37477 21.548 8.78891 22.943 10.6212 23.172C12.0206 23.3469 13.8573 23.5 16.0002 23.5C18.143 23.5 19.9797 23.3469 21.3791 23.172C23.2114 22.943 24.6256 21.548 24.883 19.7194C25.0388 18.6135 25.1668 17.3068 25.1668 16C25.1668 14.6932 25.0388 13.3865 24.883 12.2806C24.6256 10.452 23.2114 9.05702 21.3791 8.82798C19.9797 8.65306 18.143 8.5 16.0002 8.5C13.8573 8.5 12.0206 8.65306 10.6212 8.82798ZM19.0362 15.2933L14.7752 12.6302C14.2201 12.2833 13.5002 12.6823 13.5002 13.3369V18.6631C13.5002 19.3177 14.2201 19.7167 14.7752 19.3698L19.0362 16.7067C19.5584 16.3803 19.5584 15.6197 19.0362 15.2933Z" fill="#FCFCFD"/>
</svg>
