<svg width="43" height="43" viewBox="0 0 43 43" fill="none" xmlns="http://www.w3.org/2000/svg">
<path fill-rule="evenodd" clip-rule="evenodd" d="M21.473 32.2617L14.163 36.1047C13.5597 36.4233 12.8277 36.3713 12.2755 35.9706C11.7234 35.5698 11.447 34.89 11.563 34.2177L12.963 26.0787L7.05198 20.3117C6.56419 19.8361 6.38867 19.1248 6.5992 18.4769C6.80973 17.829 7.3698 17.3567 8.04398 17.2587L16.216 16.0717L19.873 8.66867C20.174 8.0572 20.7964 7.66992 21.478 7.66992C22.1596 7.66992 22.7819 8.0572 23.083 8.66867L26.738 16.0737L34.91 17.2607C35.5842 17.3587 36.1442 17.831 36.3548 18.4789C36.5653 19.1268 36.3898 19.8381 35.902 20.3137L29.989 26.0777L31.389 34.2167C31.5049 34.889 31.2286 35.5688 30.6764 35.9696C30.1242 36.3703 29.3923 36.4223 28.789 36.1037L21.473 32.2617Z" fill="#FFBE3D"/>
</svg>
