<svg width="24" height="24" viewBox="0 0 24 24" fill="none" xmlns="http://www.w3.org/2000/svg">
<path fill-rule="evenodd" clip-rule="evenodd" d="M20 17H4C3.44772 17 3 17.4477 3 18C3 18.5523 3.44772 19 4 19H20C20.5523 19 21 18.5523 21 18C21 17.4477 20.5523 17 20 17ZM4 15C2.34315 15 1 16.3431 1 18C1 19.6569 2.34315 21 4 21H20C21.6569 21 23 19.6569 23 18C23 16.3431 21.6569 15 20 15H4Z" fill="#FCFCFD"/>
<path d="M13 4C13 3.44772 12.5523 3 12 3C11.4477 3 11 3.44772 11 4V9.58579L9.70711 8.29289C9.31658 7.90237 8.68342 7.90237 8.29289 8.29289C7.90237 8.68342 7.90237 9.31658 8.29289 9.70711L11.2929 12.7071C11.6834 13.0976 12.3166 13.0976 12.7071 12.7071L15.7071 9.70711C16.0976 9.31658 16.0976 8.68342 15.7071 8.29289C15.3166 7.90237 14.6834 7.90237 14.2929 8.29289L13 9.58579V4Z" fill="#FCFCFD"/>
</svg>
