<svg width="40" height="40" viewBox="0 0 40 40" fill="none" xmlns="http://www.w3.org/2000/svg">
<path fill-rule="evenodd" clip-rule="evenodd" d="M33.3334 30.8333C33.3334 29.4526 32.2141 28.3333 30.8334 28.3333L12.5001 28.3333C7.43747 28.3333 3.33341 24.2293 3.33341 19.1667C3.33341 14.1041 7.43747 10 12.5001 10L15.0001 10L15.0001 13.3333L12.5001 13.3333C9.27842 13.3333 6.66675 15.945 6.66675 19.1667C6.66675 22.3883 9.27842 25 12.5001 25L30.8334 25C34.0551 25 36.6667 27.6117 36.6667 30.8333C36.6667 34.055 34.0551 36.6667 30.8334 36.6667L5.00008 36.6667C4.0796 36.6667 3.33341 35.9205 3.33341 35C3.33341 34.0795 4.0796 33.3333 5.00008 33.3333L30.8334 33.3333C32.2141 33.3333 33.3334 32.214 33.3334 30.8333Z" fill="#9757D7"/>
<path d="M15 10.0002C15 6.31826 17.9848 3.3335 21.6667 3.3335H30C30.9205 3.3335 31.6667 4.07969 31.6667 5.00016V18.3335C31.6667 19.254 30.9205 20.0002 30 20.0002H21.6667C17.9848 20.0002 15 17.0154 15 13.3335V10.0002Z" fill="#9757D7"/>
<path d="M35.0001 6.6665H31.6667V9.99984H35.0001C35.9206 9.99984 36.6667 9.25364 36.6667 8.33317C36.6667 7.4127 35.9206 6.6665 35.0001 6.6665Z" fill="#9757D7"/>
<path d="M35.0001 13.3332H31.6667V16.6665H35.0001C35.9206 16.6665 36.6667 15.9203 36.6667 14.9998C36.6667 14.0794 35.9206 13.3332 35.0001 13.3332Z" fill="#9757D7"/>
</svg>
