<svg width="40" height="40" viewBox="0 0 40 40" fill="none" xmlns="http://www.w3.org/2000/svg">
<path d="M19.9999 35.8335C19.9999 36.2937 20.3734 36.669 20.8331 36.6463C29.6508 36.2122 36.6666 28.9255 36.6666 20.0002C36.6666 10.7954 29.2046 3.3335 19.9999 3.3335C10.7952 3.3335 3.33325 10.7954 3.33325 20.0002C3.33325 27.7087 8.5664 34.1948 15.6738 36.0998C16.1827 36.2363 16.6666 35.8408 16.6666 35.314V23.3335H14.9999C14.0794 23.3335 13.3333 22.5873 13.3333 21.6668C13.3333 20.7463 14.0795 20.0002 14.9999 20.0002H16.6666V16.6668C16.6666 13.9054 18.9051 11.6668 21.6666 11.6668H23.3333C24.2538 11.6668 24.9999 12.413 24.9999 13.3335C24.9999 14.254 24.2538 15.0002 23.3333 15.0002H21.6666C20.7461 15.0002 19.9999 15.7464 19.9999 16.6668V20.0002H23.3333C24.2538 20.0002 24.9999 20.7463 24.9999 21.6668C24.9999 22.5873 24.2538 23.3335 23.3333 23.3335H19.9999V35.8335Z" fill="#3772FF"/>
</svg>
