<svg width="40" height="40" viewBox="0 0 40 40" fill="none" xmlns="http://www.w3.org/2000/svg">
<path d="M6.66675 1.66667C6.66675 0.746193 7.41294 0 8.33341 0C9.25389 0 10.0001 0.746192 10.0001 1.66667V38.3333C10.0001 39.2538 9.25389 40 8.33341 40C7.41294 40 6.66675 39.2538 6.66675 38.3333V1.66667Z" fill="#EF466F"/>
<path d="M23.3333 8.33317C23.3333 7.4127 24.0794 6.6665 24.9999 6.6665H32.3032C33.5422 6.6665 34.348 7.97036 33.7939 9.07853L30.3726 15.9211C30.138 16.3904 30.138 16.9426 30.3726 17.4119L33.7939 24.2545C34.348 25.3626 33.5422 26.6665 32.3032 26.6665H26.6666C24.8256 26.6665 23.3333 25.1741 23.3333 23.3332V8.33317Z" fill="#EF466F"/>
<path d="M13.3333 5.00016C13.3333 4.07969 14.0794 3.3335 14.9999 3.3335H16.6666C18.5075 3.3335 19.9999 4.82588 19.9999 6.66683V21.6668C19.9999 22.5873 19.2537 23.3335 18.3333 23.3335H14.9999C14.0794 23.3335 13.3333 22.5873 13.3333 21.6668V5.00016Z" fill="#EF466F"/>
</svg>
