<svg width="24" height="24" viewBox="0 0 24 24" fill="none" xmlns="http://www.w3.org/2000/svg">
<path fill-rule="evenodd" clip-rule="evenodd" d="M12 22C15.3137 22 18 19.3137 18 16C18 12.6863 15.3137 10 12 10C8.68629 10 6 12.6863 6 16C6 19.3137 8.68629 22 12 22ZM12 24C16.4183 24 20 20.4183 20 16C20 11.5817 16.4183 8 12 8C7.58172 8 4 11.5817 4 16C4 20.4183 7.58172 24 12 24Z" fill="#FCFCFD"/>
<path fill-rule="evenodd" clip-rule="evenodd" d="M12 18C13.1046 18 14 17.1046 14 16C14 14.8954 13.1046 14 12 14C10.8954 14 10 14.8954 10 16C10 17.1046 10.8954 18 12 18ZM12 20C14.2091 20 16 18.2091 16 16C16 13.7909 14.2091 12 12 12C9.79086 12 8 13.7909 8 16C8 18.2091 9.79086 20 12 20Z" fill="#FCFCFD"/>
<path d="M7.23605 2C6.49267 2 6.00917 2.78231 6.34162 3.44721L8.92431 8.6126C8.30131 8.87227 7.71818 9.20847 7.18666 9.60943L4.55277 4.34164C3.55541 2.34694 5.0059 0 7.23605 0H8.76391C9.90023 0 10.939 0.642007 11.4472 1.65836L12 2.76391L12.5527 1.65836C13.0609 0.642007 14.0997 0 15.236 0H16.7639C18.994 0 20.4445 2.34694 19.4472 4.34164L16.8133 9.60944C16.2818 9.20847 15.6986 8.87228 15.0756 8.6126L17.6583 3.44721C17.9908 2.78231 17.5073 2 16.7639 2H15.236C14.8573 2 14.511 2.214 14.3416 2.55279L13.118 4.99998L14.8863 8.53651C14.1049 8.23414 13.2643 8.05093 12.3865 8.00918L9.65834 2.55279C9.48895 2.214 9.14269 2 8.76391 2H7.23605Z" fill="#FCFCFD"/>
</svg>
