<svg width="40" height="40" viewBox="0 0 40 40" fill="none" xmlns="http://www.w3.org/2000/svg">
<path fill-rule="evenodd" clip-rule="evenodd" d="M23.3333 33.3334L33.3333 23.3334C37.9357 18.731 37.9357 11.2691 33.3333 6.6667C28.7309 2.06433 21.269 2.06433 16.6666 6.66671L6.66662 16.6667C2.06425 21.2691 2.06425 28.731 6.66663 33.3334C11.269 37.9357 18.7309 37.9357 23.3333 33.3334ZM27.8451 14.5118C28.496 13.861 28.496 12.8057 27.8451 12.1548C27.1942 11.5039 26.1389 11.5039 25.4881 12.1548L22.1547 15.4882C21.5039 16.139 21.5039 17.1943 22.1547 17.8452C22.8056 18.4961 23.8609 18.4961 24.5118 17.8452L27.8451 14.5118Z" fill="#FCFCFD"/>
</svg>
