<svg width="24" height="24" viewBox="0 0 24 24" fill="none" xmlns="http://www.w3.org/2000/svg">
<path fill-rule="evenodd" clip-rule="evenodd" d="M12 21C15.866 21 19 17.866 19 14C19 10.134 15.866 7 12 7C8.13401 7 5 10.134 5 14C5 17.866 8.13401 21 12 21ZM12 23C16.9706 23 21 18.9706 21 14C21 9.02944 16.9706 5 12 5C7.02944 5 3 9.02944 3 14C3 18.9706 7.02944 23 12 23Z" fill="#FCFCFD"/>
<path d="M11 10C11 9.44772 11.4477 9 12 9C12.5523 9 13 9.44772 13 10V14C13 14.5523 12.5523 15 12 15C11.4477 15 11 14.5523 11 14V10Z" fill="#FCFCFD"/>
<path d="M10 1C9.44772 1 9 1.44772 9 2C9 2.55228 9.44772 3 10 3H14C14.5523 3 15 2.55228 15 2C15 1.44772 14.5523 1 14 1H10Z" fill="#FCFCFD"/>
<path d="M20.7071 4.29289C20.3166 3.90237 19.6834 3.90237 19.2929 4.29289C18.9024 4.68342 18.9024 5.31658 19.2929 5.70711L20.2929 6.70711C20.6834 7.09763 21.3166 7.09763 21.7071 6.70711C22.0976 6.31658 22.0976 5.68342 21.7071 5.29289L20.7071 4.29289Z" fill="#FCFCFD"/>
</svg>
