<svg width="40" height="40" viewBox="0 0 40 40" fill="none" xmlns="http://www.w3.org/2000/svg">
<path fill-rule="evenodd" clip-rule="evenodd" d="M31.3633 23.5415C30.336 22.3504 28.5714 22.4118 27.1916 23.167C25.0564 24.3357 22.6058 25.0002 20 25.0002C17.3942 25.0002 14.9436 24.3357 12.8084 23.167C11.4286 22.4118 9.66402 22.3504 8.63667 23.5415C6.37037 26.1692 5 29.5913 5 33.3335V35.0002C5 36.8411 6.49238 38.3335 8.33333 38.3335H31.6667C33.5076 38.3335 35 36.8411 35 35.0002V33.3335C35 29.5913 33.6296 26.1692 31.3633 23.5415Z" fill="#45B36B"/>
<path d="M28.3334 9.99984C28.3334 14.6022 24.6025 18.3332 20.0001 18.3332C15.3977 18.3332 11.6667 14.6022 11.6667 9.99984C11.6667 5.39746 15.3977 1.6665 20.0001 1.6665C24.6025 1.6665 28.3334 5.39746 28.3334 9.99984Z" fill="#45B36B"/>
</svg>
