<svg width="167" height="64" viewBox="0 0 167 64" fill="none" xmlns="http://www.w3.org/2000/svg">
<path d="M34.603 26.5949H30.3357L27.3153 34.8801L24.2396 26.5949H20L25.6528 40.2003H28.9779L34.603 26.5949Z" fill="#B1B5C4"/>
<path d="M47.5936 32.8018C47.5936 29.1719 44.7118 26.3178 41.0264 26.3178C37.0639 26.3178 33.9604 29.3658 33.9604 33.3283C33.9604 37.3739 37.1193 40.4774 41.1095 40.4774C43.9359 40.4774 46.2081 39.4244 47.2056 37.6233L44.1576 35.7668C43.6865 36.598 42.4119 37.1522 41.1926 37.1522C39.3361 37.1522 38.0615 36.1824 37.7012 34.3259H47.4827C47.5659 33.7994 47.5936 33.2729 47.5936 32.8018ZM37.7567 31.832C38.1169 30.3634 39.1976 29.4767 40.8324 29.4767C42.2733 29.4767 43.5203 30.4742 43.6865 31.832H37.7567Z" fill="#B1B5C4"/>
<path d="M52.9915 20.8036H49.0845V40.2003H52.9915V20.8036Z" fill="#B1B5C4"/>
<path d="M61.4243 26.3178C57.4064 26.3178 54.3584 29.3658 54.3584 33.4114C54.3584 37.457 57.4064 40.4774 61.4243 40.4774C65.4145 40.4774 68.4903 37.457 68.4903 33.4114C68.4903 29.3658 65.4145 26.3178 61.4243 26.3178ZM61.4243 30.0586C63.2532 30.0586 64.6663 31.4718 64.6663 33.4114C64.6663 35.2957 63.2532 36.7366 61.4243 36.7366C59.5678 36.7366 58.1823 35.2957 58.1823 33.4114C58.1823 31.4718 59.5678 30.0586 61.4243 30.0586Z" fill="#B1B5C4"/>
<path d="M82.8293 36.5703L79.3656 35.0186C78.8392 36.0993 77.7585 36.7366 76.4284 36.7366C74.4888 36.7366 73.1033 35.2957 73.1033 33.4114C73.1033 31.4995 74.4888 30.0586 76.4284 30.0586C77.6199 30.0586 78.6175 30.6405 79.1163 31.5549L82.4137 29.6706C81.333 27.6478 79.0885 26.3178 76.4284 26.3178C72.3551 26.3178 69.2793 29.3658 69.2793 33.4114C69.2793 37.457 72.3551 40.4774 76.4284 40.4774C79.3379 40.4774 81.8041 38.9257 82.8293 36.5703Z" fill="#B1B5C4"/>
<path d="M85.9913 20C84.6889 20 83.6082 21.0807 83.6082 22.3553C83.6082 23.6577 84.6889 24.7383 85.9913 24.7383C87.2936 24.7383 88.3743 23.6577 88.3743 22.3553C88.3743 21.0807 87.2936 20 85.9913 20ZM84.0516 26.5949V40.2003H87.9586V26.5949H84.0516Z" fill="#B1B5C4"/>
<path d="M98.6604 36.5703C98.3556 36.6812 97.8291 36.7643 97.4412 36.7643C96.3051 36.7643 95.3352 35.9607 95.3352 34.6861V30.308H98.6881V26.5949H95.3352V23.0203H91.4282V26.5949H88.9066V30.308H91.4282V34.8801C91.4282 38.3992 93.6727 40.422 96.8593 40.422C97.5797 40.422 98.3556 40.2834 98.8544 40.034L98.6604 36.5703Z" fill="#B1B5C4"/>
<path d="M109.425 26.5949L106.405 34.5475L103.384 26.5949H99.1726L104.41 39.0919L101.888 44.717H106.072L113.637 26.5949H109.425Z" fill="#B1B5C4"/>
<path fill-rule="evenodd" clip-rule="evenodd" d="M125 17C123.895 17 123 17.8954 123 19V39C123 43.4183 126.582 47 131 47H145C149.418 47 153 43.4183 153 39V25C153 20.5817 149.418 17 145 17H125ZM131 28.7888C131 25.0758 134.159 22 137.955 22C141.779 22 144.91 25.0758 144.91 28.7888C144.91 30.0635 144.439 31.7815 143.386 33.4718L138.288 41.6738H133.605L137.706 35.1898C137.539 35.2175 137.373 35.2175 137.207 35.2175C133.66 35.2175 131 32.5019 131 28.7888ZM134.99 28.8166C134.99 30.4514 136.293 31.7538 137.983 31.7538C139.618 31.7538 140.892 30.4514 140.892 28.8166C140.892 27.1817 139.59 25.9071 137.955 25.9071C136.293 25.9071 134.99 27.1817 134.99 28.8166Z" fill="#B1B5C4"/>
</svg>
