<svg width="24" height="24" viewBox="0 0 24 24" fill="none" xmlns="http://www.w3.org/2000/svg">
<path fill-rule="evenodd" clip-rule="evenodd" d="M14.1466 11.2161L21.124 10.3439C21.6245 10.2814 22 9.85598 22 9.35165V7C22 6.44772 21.5523 6 21 6H17.4649C16.7733 7.1956 15.4806 8 14 8C12.5194 8 11.2267 7.1956 10.5351 6H8C4.68629 6 2 8.68629 2 12C2 15.3137 4.68629 18 8 18C11.0562 18 13.5813 15.7133 13.9527 12.7584L14.1466 11.2161ZM11.5 4C11.7761 4 11.9936 4.22733 12.0617 4.49494C12.282 5.36012 13.0663 6 14 6C14.9337 6 15.718 5.36012 15.9383 4.49494C16.0064 4.22733 16.2239 4 16.5 4H21C22.6569 4 24 5.34315 24 7V9.35165C24 10.8646 22.8734 12.1408 21.3721 12.3285L15.9371 13.0079C15.4415 16.9504 12.0769 20 8 20C3.58172 20 0 16.4183 0 12C0 7.58172 3.58172 4 8 4H11.5Z" fill="#FCFCFD"/>
<path fill-rule="evenodd" clip-rule="evenodd" d="M8 13C8.55228 13 9 12.5523 9 12C9 11.4477 8.55228 11 8 11C7.44772 11 7 11.4477 7 12C7 12.5523 7.44772 13 8 13ZM8 15C9.65685 15 11 13.6569 11 12C11 10.3431 9.65685 9 8 9C6.34315 9 5 10.3431 5 12C5 13.6569 6.34315 15 8 15Z" fill="#FCFCFD"/>
</svg>
